<svg width="38" height="39" viewBox="0 0 38 39" fill="none" xmlns="http://www.w3.org/2000/svg">
<g clip-path="url(#clip0)">
<path d="M21.5656 38H15.4683C14.4499 38 13.6214 37.1715 13.6214 36.1531V22.4004H10.0641C9.04569 22.4004 8.21722 21.5717 8.21722 20.5535V14.6605C8.21722 13.642 9.04569 12.8136 10.0641 12.8136H13.6214V9.86252C13.6214 6.93648 14.5402 4.44703 16.2782 2.66374C18.024 0.872325 20.4638 -0.0743637 23.3337 -0.0743637L27.9838 -0.0668112C29.0005 -0.0650682 29.8275 0.763393 29.8275 1.78009V7.25165C29.8275 8.27009 28.9993 9.09855 27.9812 9.09855L24.8504 9.09971C23.8955 9.09971 23.6524 9.29114 23.6004 9.34982C23.5147 9.44713 23.4128 9.72222 23.4128 10.4818V12.8133H27.7459C28.0721 12.8133 28.3882 12.8937 28.6598 13.0454C29.2457 13.3727 29.6099 13.9918 29.6099 14.6607L29.6076 20.5538C29.6076 21.5717 28.7792 22.4001 27.7607 22.4001H23.4128V36.1531C23.4128 37.1715 22.584 38 21.5656 38ZM15.8535 35.7679H21.1804V21.4011C21.1804 20.7211 21.7338 20.168 22.4135 20.168H27.3755L27.3776 15.0456H22.4132C21.7335 15.0456 21.1804 14.4926 21.1804 13.8125V10.4818C21.1804 9.6098 21.269 8.61809 21.9272 7.87271C22.7226 6.97162 23.976 6.86763 24.8498 6.86763L27.5954 6.86647V2.16469L23.332 2.15772C18.7197 2.15772 15.8535 5.1102 15.8535 9.86252V13.8125C15.8535 14.4923 15.3004 15.0456 14.6207 15.0456H10.4493V20.168H14.6207C15.3004 20.168 15.8535 20.7211 15.8535 21.4011V35.7679ZM27.9795 2.16527H27.9797H27.9795Z" fill="#F1F1F1"/>
</g>
<defs>
<clipPath id="clip0">
<rect width="38" height="38.0744" fill="white"/>
</clipPath>
</defs>
</svg>
