<svg width="38" height="38" viewBox="0 0 38 38" fill="none" xmlns="http://www.w3.org/2000/svg">
<path d="M27.7137 0H10.2862C4.61431 0 0 4.61431 0 10.2862V27.714C0 33.3856 4.61431 37.9999 10.2862 37.9999H27.714C33.3856 37.9999 37.9999 33.3856 37.9999 27.714V10.2862C37.9999 4.61431 33.3856 0 27.7137 0V0ZM35.7722 27.714C35.7722 32.1572 32.1572 35.7722 27.7137 35.7722H10.2862C5.84269 35.7722 2.22772 32.1572 2.22772 27.714V10.2862C2.22772 5.84269 5.84269 2.22772 10.2862 2.22772H27.714C32.1572 2.22772 35.7722 5.84269 35.7722 10.2862V27.714Z" fill="#F1F1F1"/>
<path d="M19 8.60965C13.2706 8.60965 8.60965 13.2706 8.60965 19C8.60965 24.7293 13.2706 29.3903 19 29.3903C24.7293 29.3903 29.3903 24.7293 29.3903 19C29.3903 13.2706 24.7293 8.60965 19 8.60965ZM19 27.1626C14.4993 27.1626 10.8374 23.5009 10.8374 19C10.8374 14.4993 14.4993 10.8374 19 10.8374C23.5009 10.8374 27.1626 14.4993 27.1626 19C27.1626 23.5009 23.5009 27.1626 19 27.1626Z" fill="#F1F1F1"/>
<path d="M29.6387 4.91959C27.9456 4.91959 26.5685 6.29699 26.5685 7.98981C26.5685 9.68292 27.9456 11.0603 29.6387 11.0603C31.3319 11.0603 32.7092 9.68292 32.7092 7.98981C32.7092 6.2967 31.3319 4.91959 29.6387 4.91959ZM29.6387 8.83231C29.1743 8.83231 28.7962 8.45426 28.7962 7.98981C28.7962 7.52507 29.1743 7.14731 29.6387 7.14731C30.1035 7.14731 30.4815 7.52507 30.4815 7.98981C30.4815 8.45426 30.1035 8.83231 29.6387 8.83231Z" fill="#F1F1F1"/>
</svg>
