<svg width="34" height="34" viewBox="0 0 34 34" fill="none" xmlns="http://www.w3.org/2000/svg">
<g clip-path="url(#clip0)">
<path d="M33.5243 29.2139L25.3839 20.8042C24.8002 20.2009 24.0706 19.9593 23.7545 20.2678C23.4374 20.5741 22.7073 20.3331 22.1236 19.7298L22.0071 19.609C25.6505 14.8172 25.2969 7.95644 20.9218 3.58132C16.1468 -1.19369 8.40468 -1.19369 3.63027 3.58132C-1.14474 8.35633 -1.14474 16.0973 3.63027 20.8723C8.0799 25.3226 15.1028 25.6206 19.9045 21.777L19.9556 21.8304C20.5382 22.4337 20.7552 23.1709 20.4371 23.4776C20.1204 23.7845 20.3359 24.5222 20.9202 25.1244L29.0562 33.5374C29.6399 34.1391 30.6017 34.157 31.2057 33.5728L33.489 31.3635C34.0906 30.7806 34.107 29.8194 33.5243 29.2139ZM18.2349 18.1852C14.9489 21.4717 9.60166 21.4717 6.31619 18.1863C3.03023 14.9003 3.03073 9.55251 6.31619 6.26714C9.60166 2.98118 14.9489 2.98168 18.2338 6.26764C21.5202 9.55311 21.5202 14.8998 18.2349 18.1852Z" fill="#E84118"/>
</g>
<defs>
<clipPath id="clip0">
<rect width="34" height="34" fill="white"/>
</clipPath>
</defs>
</svg>
