<svg width="200" height="200" viewBox="0 0 200 200" fill="none" xmlns="http://www.w3.org/2000/svg">
<path d="M141.821 103.601C141.821 109.683 146.263 114.632 151.723 114.632C157.182 114.632 161.624 109.683 161.624 103.601C161.624 97.5184 157.182 92.5699 151.723 92.5699C146.263 92.5699 141.821 97.5184 141.821 103.601ZM155.766 103.601C155.766 106.454 153.952 108.774 151.722 108.774C149.493 108.774 147.679 106.453 147.679 103.601C147.679 100.748 149.493 98.4278 151.722 98.4278C153.952 98.4274 155.766 100.748 155.766 103.601Z" fill="#F1F1F1"/>
<path d="M195.648 132.954C198.048 127.969 199.31 122.474 199.31 116.896C199.31 111.889 198.327 107.031 196.388 102.457C195.756 100.967 194.036 100.272 192.548 100.903C191.059 101.534 190.364 103.254 190.995 104.743C192.626 108.59 193.452 112.679 193.452 116.896C193.452 122.097 192.154 127.211 189.691 131.748H182.691C182.852 130.954 182.935 130.137 182.935 129.308C182.935 123.226 178.493 118.277 173.034 118.277C167.574 118.277 163.132 123.226 163.132 129.308C163.132 130.137 163.216 130.954 163.376 131.748H159.222L173.224 98.3844C173.85 96.893 173.148 95.1762 171.656 94.55C170.165 93.925 168.448 94.6258 167.822 96.1176L152.868 131.748H134.879C132.417 127.211 131.119 122.097 131.119 116.896C131.119 99.711 145.1 85.7297 162.285 85.7297C170.61 85.7297 178.437 88.9715 184.323 94.8586C185.467 96.002 187.321 96.002 188.466 94.8586C189.609 93.7145 189.609 91.8602 188.466 90.716C183.495 85.7461 177.361 82.3653 170.677 80.8238L167.487 70.175C167.529 70.1504 167.572 70.1293 167.613 70.1043C169.903 68.7156 171.515 66.5188 172.152 63.9176C173.467 58.5492 170.17 53.1114 164.801 51.7961C161.512 50.9895 158.199 51.9168 155.822 53.9891C150.878 57.7383 144.616 59.0473 138.583 57.5692C131.839 55.9164 126.439 51.011 124.138 44.4465C122.009 38.3719 117.162 32.8821 109.315 30.2879L106.317 24.1227C108.535 22.3078 109.954 19.5508 109.954 16.468C109.954 11.0156 105.518 6.57971 100.065 6.57971C94.6125 6.57971 90.1766 11.0156 90.1766 16.468C90.1766 19.5504 91.5949 22.3074 93.8125 24.1223L92.0934 27.6582C87.3012 28.0391 82.7238 30.5516 79.5547 33.5223C74.4801 38.2793 67.4254 40.1324 60.6797 38.4809C54.6441 37.002 49.6961 32.9453 47.0461 27.3328C45.8953 24.3989 43.3871 22.0469 40.1 21.2418C34.732 19.9266 29.2938 23.2242 27.9781 28.5926C26.9 32.9922 28.9215 37.4367 32.6414 39.6223L14.116 101.258H8.78672C3.9418 101.258 0 105.2 0 110.045C0 114.889 3.9418 118.831 8.78672 118.831H14.0117C19.7961 125.839 28.5133 129.982 37.6277 129.982C46.8492 129.982 55.4086 125.929 61.2484 118.831H66.4684C71.3133 118.831 75.2551 114.889 75.2551 110.045C75.2551 105.2 71.3133 101.258 66.4684 101.258H61.1391L42.6383 39.7035C42.7297 39.652 42.8227 39.6043 42.9125 39.5496C44.2367 38.7465 45.3328 37.6711 46.1461 36.4051C49.6105 40.193 54.141 42.9094 59.2855 44.1696C61.3746 44.6817 63.4852 44.9321 65.5793 44.9321C72.182 44.9321 78.607 42.4399 83.5609 37.7957C85.0801 36.3719 86.8391 35.2738 88.7504 34.5332L85.9832 40.2246C83.8613 44.5891 84.1949 49.8219 86.8539 53.8809L88.7812 56.8235C88.802 56.8551 88.8129 56.8918 88.8129 56.9297V131.291C88.8129 131.349 88.7871 131.405 88.7414 131.442L80.0938 138.533C78.202 140.085 77.1898 142.375 77.318 144.818C77.4453 147.261 78.6898 149.434 80.7324 150.78L85.4613 153.896H79.7293C74.0992 153.896 68.9773 157.218 66.6809 162.359L63.2324 170.078H56.4762C51.0941 170.078 46.223 173.052 43.7641 177.839L40.2797 184.622C39.3098 186.509 39.391 188.716 40.4969 190.527C41.6023 192.338 43.5293 193.42 45.6512 193.42H110.604C112.221 193.42 113.532 192.108 113.532 190.491C113.532 188.873 112.221 187.562 110.604 187.562H45.6508C45.6105 187.562 45.5492 187.562 45.4965 187.475C45.4437 187.388 45.4719 187.334 45.4898 187.298L48.9742 180.515C50.4258 177.691 53.3 175.936 56.4762 175.936H144.096C147.418 175.936 150.441 177.896 151.796 180.93L154.645 187.307C154.66 187.341 154.685 187.397 154.631 187.48C154.578 187.562 154.516 187.562 154.48 187.562H125.001C123.383 187.562 122.072 188.873 122.072 190.491C122.072 192.109 123.383 193.42 125.001 193.42H154.48C156.534 193.42 158.428 192.391 159.546 190.667C160.664 188.943 160.831 186.795 159.993 184.918L157.144 178.541C154.848 173.4 149.726 170.078 144.095 170.078H136.966L133.794 162.605C131.549 157.314 126.385 153.896 120.638 153.896H114.668L119.397 150.78C121.439 149.434 122.684 147.261 122.811 144.818C122.939 142.375 121.927 140.084 120.036 138.533L111.388 131.442C111.342 131.404 111.316 131.35 111.316 131.291V56.9301C111.316 56.8922 111.327 56.8559 111.348 56.8235L113.275 53.8813C115.934 49.8215 116.268 44.5891 114.146 40.225L113.708 39.3242C115.927 41.168 117.632 43.5942 118.609 46.3836C121.568 54.8242 128.513 61.1324 137.189 63.2582C139.286 63.7723 141.404 64.0246 143.505 64.0246C146.56 64.0246 149.575 63.4852 152.434 62.443C152.726 65.6149 154.527 68.4926 157.269 70.1348L154.077 80.7899C137.598 84.534 125.261 99.3004 125.261 116.896C125.261 122.503 126.536 128.027 128.96 133.034C126.434 134.579 124.744 137.363 124.744 140.534C124.744 145.379 128.686 149.321 133.531 149.321H138.752C144.592 156.419 153.151 160.472 162.372 160.472C171.593 160.472 180.152 156.419 185.992 149.321H191.212C196.057 149.321 199.999 145.379 199.999 140.534C200 137.307 198.249 134.482 195.648 132.954ZM37.6273 124.125C31.9574 124.125 26.632 122.239 22.3281 118.831H52.9215C48.6109 122.238 43.2746 124.125 37.6273 124.125ZM37.0258 107.116H66.4684C68.0836 107.116 69.3973 108.429 69.3973 110.045C69.3973 111.66 68.0836 112.973 66.4684 112.973H8.78672C7.17148 112.973 5.85781 111.66 5.85781 110.045C5.85781 108.429 7.17148 107.116 8.78672 107.116H22.9672C24.5848 107.116 25.8961 105.804 25.8961 104.187C25.8961 102.569 24.5848 101.258 22.9672 101.258H20.2328L37.6273 43.3836L55.0219 101.258H37.0258C35.4082 101.258 34.0969 102.569 34.0969 104.187C34.0969 105.805 35.4078 107.116 37.0258 107.116ZM40.4324 32.3653C40.0602 31.1274 38.9203 30.2797 37.6273 30.2797C36.3344 30.2797 35.1945 31.1274 34.8223 32.3653L34.4602 33.5707C33.6852 32.5953 33.3488 31.2871 33.6672 29.9863C34.1328 28.0867 35.8402 26.811 37.7145 26.811C38.0418 26.811 38.3742 26.85 38.7059 26.9313C39.7867 27.1965 40.6996 27.866 41.2766 28.818C41.8535 29.7696 42.0254 30.8887 41.7609 31.9699C41.598 32.6336 41.2816 33.2328 40.8422 33.7313L40.4324 32.3653ZM100.065 12.4375C102.287 12.4375 104.096 14.2457 104.096 16.468C104.096 18.6903 102.287 20.4989 100.065 20.4989C97.8422 20.4989 96.0344 18.6903 96.0344 16.468C96.0344 14.2457 97.8422 12.4375 100.065 12.4375ZM100.065 26.3567C100.337 26.3567 100.606 26.3426 100.873 26.3207L108.878 42.786C110.104 45.3055 109.911 48.3274 108.375 50.6711L106.449 53.6129C105.801 54.6016 105.459 55.7485 105.459 56.9297V117.434H94.6707V56.9301C94.6707 55.7485 94.3285 54.6016 93.6813 53.6137L91.7539 50.6715C90.2188 48.3278 90.0258 45.3059 91.2512 42.786L99.2566 26.3211C99.5234 26.3426 99.7926 26.3567 100.065 26.3567ZM128.402 164.894L130.603 170.079H69.648L72.0293 164.749C73.3848 161.715 76.407 159.755 79.7293 159.755H120.639C124.03 159.755 127.077 161.772 128.402 164.894ZM116.321 143.063C116.919 143.554 116.979 144.182 116.962 144.514C116.945 144.845 116.82 145.464 116.174 145.889L104.023 153.897H96.107L83.9562 145.889C83.3109 145.464 83.1855 144.845 83.1684 144.514C83.1508 144.183 83.2109 143.554 83.809 143.063L92.457 135.972C93.8645 134.818 94.6711 133.112 94.6711 131.291V123.293H105.459V131.291C105.459 133.112 106.267 134.818 107.674 135.972L116.321 143.063ZM158.368 60.5403C159.121 57.0192 164.216 56.2297 165.978 59.3719C166.555 60.3235 166.727 61.4426 166.463 62.5239C166.317 63.1184 166.045 63.659 165.675 64.1242L165.178 62.4668C164.807 61.2274 163.666 60.3785 162.372 60.3785C161.078 60.3785 159.938 61.2274 159.566 62.4668L159.094 64.0434C158.366 63.0774 158.059 61.8047 158.368 60.5403ZM162.373 73.5137L164.294 79.9266C163.627 79.891 162.958 79.8719 162.286 79.8719C161.671 79.8719 161.061 79.8879 160.454 79.9176L162.373 73.5137ZM168.99 129.308C168.99 126.455 170.804 124.135 173.034 124.135C175.263 124.135 177.077 126.456 177.077 129.308C177.077 130.173 176.911 131.002 176.592 131.748H169.475C169.157 131.002 168.99 130.173 168.99 129.308ZM162.373 154.614C156.726 154.614 151.39 152.728 147.079 149.321H177.666C173.355 152.727 168.019 154.614 162.373 154.614ZM191.213 143.463H133.532C131.916 143.463 130.603 142.15 130.603 140.534C130.603 138.919 131.916 137.605 133.532 137.605H191.213C192.829 137.605 194.142 138.919 194.142 140.534C194.142 142.15 192.829 143.463 191.213 143.463Z" fill="#F1F1F1"/>
</svg>
