<svg width="34" height="34" viewBox="0 0 34 34" fill="none" xmlns="http://www.w3.org/2000/svg">
<g id="Share">
<path id="icon/social/share_24px" fill-rule="evenodd" clip-rule="evenodd" d="M22.7233 23.9275C23.46 23.2617 24.4233 22.8367 25.5 22.8367C27.7808 22.8367 29.6367 24.6925 29.6367 26.9733C29.6367 29.2542 27.7808 31.11 25.5 31.11C23.2192 31.11 21.3633 29.2542 21.3633 26.9733C21.3633 26.6617 21.4058 26.35 21.4767 26.0525L11.39 20.1592C10.625 20.8675 9.61917 21.3067 8.5 21.3067C6.14833 21.3067 4.25 19.4083 4.25 17.0567C4.25 14.705 6.14833 12.8067 8.5 12.8067C9.61917 12.8067 10.625 13.2458 11.39 13.9542L21.3775 8.13167C21.3067 7.80583 21.25 7.48 21.25 7.14C21.25 4.78833 23.1483 2.89 25.5 2.89C27.8517 2.89 29.75 4.78833 29.75 7.14C29.75 9.49167 27.8517 11.39 25.5 11.39C24.3808 11.39 23.375 10.9508 22.61 10.2425L12.6225 16.065C12.6933 16.3908 12.75 16.7167 12.75 17.0567C12.75 17.3967 12.6933 17.7225 12.6225 18.0483L22.7233 23.9275ZM26.9167 7.14C26.9167 6.36083 26.2792 5.72333 25.5 5.72333C24.7208 5.72333 24.0833 6.36083 24.0833 7.14C24.0833 7.91917 24.7208 8.55667 25.5 8.55667C26.2792 8.55667 26.9167 7.91917 26.9167 7.14ZM8.5 18.4733C7.72084 18.4733 7.08334 17.8358 7.08334 17.0567C7.08334 16.2775 7.72084 15.64 8.5 15.64C9.27917 15.64 9.91667 16.2775 9.91667 17.0567C9.91667 17.8358 9.27917 18.4733 8.5 18.4733ZM24.0833 27.0017C24.0833 27.7808 24.7208 28.4183 25.5 28.4183C26.2792 28.4183 26.9167 27.7808 26.9167 27.0017C26.9167 26.2225 26.2792 25.585 25.5 25.585C24.7208 25.585 24.0833 26.2225 24.0833 27.0017Z" fill="#E84118"/>
</g>
</svg>
