<svg width="38" height="38" viewBox="0 0 38 38" fill="none" xmlns="http://www.w3.org/2000/svg">
<g clip-path="url(#clip0)">
<path d="M14.4591 34.7129C8.11683 34.7129 3.10416 33.6048 0.705962 31.6734L0.659286 31.6357L0.616958 31.5934C0.0472707 31.0234 -0.139436 30.2757 0.105254 29.5422L0.127578 29.4814C0.424453 28.7389 1.15185 28.2391 1.94014 28.2344C3.56252 28.2063 4.98195 28.0129 6.27005 27.6375C4.21541 26.6819 2.78815 25.0274 1.93898 22.6326C1.65341 21.8858 1.89984 21.0578 2.55795 20.5641C2.72031 20.442 2.90382 20.3498 3.09807 20.2881C1.95637 18.9701 1.11301 17.4704 0.640731 15.8843L0.625945 15.835L0.615798 15.7845C0.455474 14.9823 0.814101 14.1575 1.47134 13.8024C1.74705 13.6441 2.04654 13.562 2.34718 13.5551C2.02306 12.8569 1.78735 12.1403 1.64761 11.4192C1.2597 9.42114 1.57977 7.4181 2.59854 5.4658L2.83424 4.9944C3.02298 4.61722 3.38364 4.35223 3.79938 4.28468C4.21512 4.21742 4.6413 4.35484 4.93904 4.65259L5.36841 5.08253C8.76044 8.63865 11.7988 10.326 17.0518 11.4804C17.2863 9.46405 18.1581 7.58973 19.5645 6.11464C21.2382 4.35948 23.4732 3.37463 25.8577 3.341H25.8734C27.6132 3.341 29.7713 4.33426 31.0765 5.0347C32.1962 4.66824 33.5452 4.10087 34.9449 3.50104C35.5998 3.19372 36.4072 3.33433 36.9221 3.84923C37.4269 4.35397 37.5669 5.06572 37.299 5.75746C37.1973 6.04071 37.0819 6.31874 36.9534 6.59068C37.1451 6.67852 37.3205 6.79768 37.4686 6.94583C37.9165 7.39375 38.1032 8.09477 37.9441 8.73201L37.927 8.7926C37.3906 10.5211 36.3603 11.9289 34.9977 12.8126C34.7701 24.9314 25.6441 34.7129 14.4591 34.7129ZM2.84294 30.4323C5.10285 31.7108 9.40956 32.4843 14.4591 32.4843C19.3137 32.4843 23.895 30.4001 27.3586 26.6155C30.8507 22.7999 32.7737 17.7331 32.7737 12.3481V12.2875C32.7737 11.7999 33.0422 11.3549 33.4741 11.1258C34.3506 10.6617 35.0603 9.87109 35.5218 8.86015C35.0458 8.93524 34.5619 8.74418 34.2653 8.34584C33.9206 7.88284 33.9168 7.25749 34.2558 6.79043C34.4387 6.5382 34.6045 6.27583 34.7524 6.00447C33.5437 6.51211 32.3959 6.96728 31.3995 7.26966C31.0374 7.37925 30.6338 7.33635 30.303 7.15167C28.529 6.16334 26.8768 5.57249 25.8806 5.56959C22.2048 5.62584 19.216 8.77404 19.216 12.5911C19.216 12.9857 19.0409 13.3556 18.7362 13.6064C18.4312 13.8569 18.0346 13.9572 17.6473 13.8806C11.5903 12.6873 8.00115 10.898 4.26875 7.14732C3.73386 8.42904 3.58774 9.72004 3.83504 10.9948C4.08582 12.2861 4.75292 13.58 5.76444 14.7365C6.14887 15.1754 6.19989 15.8034 5.89142 16.2988C5.58411 16.7926 4.99993 17.0233 4.43836 16.8729C3.99942 16.7552 3.59586 16.6006 3.21317 16.402C3.99275 18.0955 5.33362 19.6616 7.0192 20.8166C7.50771 21.1515 7.71181 21.7757 7.51583 22.3346C7.31955 22.8944 6.77132 23.2548 6.17873 23.2107C5.53308 23.1629 4.96108 23.0403 4.43459 22.8336C5.37972 24.7583 6.88989 25.8174 9.21648 26.2221C9.77051 26.3187 10.2019 26.7561 10.29 27.3107C10.3785 27.8654 10.1039 28.415 9.60729 28.6786C7.62426 29.7298 5.45683 30.294 2.84294 30.4323Z" fill="#F1F1F1"/>
</g>
<defs>
<clipPath id="clip0">
<rect width="38" height="38" fill="white"/>
</clipPath>
</defs>
</svg>
